<?xml version="1.0" encoding="UTF-8" standalone="no"?>
<svg width="20px" height="19px" viewBox="0 0 20 19" version="1.1" xmlns="http://www.w3.org/2000/svg" xmlns:xlink="http://www.w3.org/1999/xlink" xmlns:sketch="http://www.bohemiancoding.com/sketch/ns">
    <!-- Generator: Sketch 3.3.3 (12081) - http://www.bohemiancoding.com/sketch -->
    <title>Imported Layers</title>
    <desc>Created with Sketch.</desc>
    <defs></defs>
    <g id="Page-1" stroke="none" stroke-width="1" fill="none" fill-rule="evenodd" sketch:type="MSPage">
        <g id="Landing-page" sketch:type="MSArtboardGroup" transform="translate(-537.000000, -5563.000000)" fill-opacity="50%" fill="#424753">
            <g id="Sign-up" sketch:type="MSLayerGroup" transform="translate(0.000000, 5360.000000)">
                <g id="form" transform="translate(231.000000, 182.000000)" sketch:type="MSShapeGroup">
                    <g id="email-input" transform="translate(291.000000, 0.000000)">
                        <g id="Imported-Layers" transform="translate(15.000000, 21.000000)">
                            <path d="M0.767096774,8.09225806 C0.645806452,8.14258065 0.566451613,8.26064516 0.567096774,8.3916129 C0.567741935,8.52258065 0.647741935,8.64064516 0.769032258,8.68967742 L7.51741935,11.4135484 L19.3729032,0.425806452 L0.767096774,8.09225806" id="Fill-1"></path>
                            <path d="M7.7516129,12.0767742 L7.7516129,17.7419355 C7.7516129,17.8870968 7.84774194,18.0141935 7.98774194,18.0529032 C8.01612903,18.0612903 8.04516129,18.0651613 8.07419355,18.0651613 C8.18516129,18.0651613 8.29096774,18.0070968 8.35032258,17.9083871 L11.1258065,13.2877419 L16.1941935,15.996129 C16.2412903,16.0219355 16.2935484,16.0341935 16.3458065,16.0341935 C16.3916129,16.0341935 16.4374194,16.0245161 16.4806452,16.0051613 C16.5722581,15.9625806 16.6387097,15.88 16.6606452,15.7812903 L20,0.724516129 L7.7516129,12.0767742" id="Fill-2"></path>
                        </g>
                    </g>
                </g>
            </g>
        </g>
    </g>
</svg>