<?xml version="1.0" encoding="UTF-8" standalone="no"?>
<svg width="14px" height="20px" viewBox="0 0 14 20" version="1.1" xmlns="http://www.w3.org/2000/svg" xmlns:xlink="http://www.w3.org/1999/xlink" xmlns:sketch="http://www.bohemiancoding.com/sketch/ns">
    <!-- Generator: Sketch 3.3.3 (12081) - http://www.bohemiancoding.com/sketch -->
    <title>Imported Layers</title>
    <desc>Created with Sketch.</desc>
    <defs></defs>
    <g id="Page-1" stroke="none" stroke-width="1" fill="none" fill-rule="evenodd" sketch:type="MSPage">
        <g id="Landing-page" sketch:type="MSArtboardGroup" transform="translate(-835.000000, -5563.000000)" fill-opacity="50%" fill="#424753">
            <g id="Sign-up" sketch:type="MSLayerGroup" transform="translate(0.000000, 5360.000000)">
                <g id="form" transform="translate(231.000000, 182.000000)" sketch:type="MSShapeGroup">
                    <g id="password-input" transform="translate(584.000000, 0.000000)">
                        <path d="M31.6685484,29.9394416 L31.6685484,25.6674194 C31.6685484,23.2243587 29.2848307,21 26.667742,21 C24.0499865,21 21.6669355,23.2243587 21.6669355,25.6674194 L21.6669355,29.9394416 C20.6327687,31.1149646 20,32.6512123 20,34.3354839 C20,38.0120768 22.991149,41.0032259 26.667742,41.0032259 C30.3436681,41.0032259 33.3354839,38.0120768 33.3354839,34.3354839 C33.3354839,32.6512123 32.7020484,31.1149646 31.6685484,29.9394416 L31.6685484,29.9394416 Z M27.0011291,34.9089097 L27.0011291,37.3359678 C27.0011291,37.5199975 26.8517716,37.6693549 26.667742,37.6693549 C26.4830455,37.6693549 26.3343549,37.5199975 26.3343549,37.3359678 L26.3343549,34.9089097 C26.1356562,34.7935578 26.0009678,34.5808568 26.0009678,34.3354839 C26.0009678,33.9680913 26.2996826,33.6687097 26.667742,33.6687097 C27.0351345,33.6687097 27.3345162,33.9680913 27.3345162,34.3354839 C27.3345162,34.5808568 27.199161,34.7935578 27.0011291,34.9089097 L27.0011291,34.9089097 Z M31.0017742,29.2786684 C29.8349194,28.2771736 28.3220087,27.667742 26.667742,27.667742 C25.0128084,27.667742 23.5005645,28.2771736 22.3337097,29.2786684 L22.3337097,25.6674194 C22.3337097,23.6110878 24.4400494,21.6667742 26.667742,21.6667742 C28.8954345,21.6667742 31.0017742,23.6110878 31.0017742,25.6674194 L31.0017742,29.2786684 L31.0017742,29.2786684 Z" id="Imported-Layers"></path>
                    </g>
                </g>
            </g>
        </g>
    </g>
</svg>