<?xml version="1.0" encoding="UTF-8" standalone="no"?>
<svg width="20px" height="20px" viewBox="0 0 20 20" version="1.1" xmlns="http://www.w3.org/2000/svg" xmlns:xlink="http://www.w3.org/1999/xlink" xmlns:sketch="http://www.bohemiancoding.com/sketch/ns">
    <!-- Generator: Sketch 3.3.3 (12081) - http://www.bohemiancoding.com/sketch -->
    <title>Imported Layers</title>
    <desc>Created with Sketch.</desc>
    <defs></defs>
    <g id="Page-1" stroke="none" stroke-width="1" fill="none" fill-rule="evenodd" sketch:type="MSPage">
        <g id="Landing-page" sketch:type="MSArtboardGroup" transform="translate(-248.000000, -5563.000000)" fill-opacity="50%" fill="#424753">
            <g id="Sign-up" sketch:type="MSLayerGroup" transform="translate(0.000000, 5360.000000)">
                <g id="form" transform="translate(231.000000, 182.000000)" sketch:type="MSShapeGroup">
                    <g id="name-input">
                        <path d="M35.5070968,36.5870968 C34.9303226,35.436129 33.0354839,34.7425806 30.4129032,33.7819355 C30.0419355,33.6464516 29.6567742,33.5051613 29.2580645,33.356129 L29.2580645,31.2703226 C29.52,30.983871 30.1832258,30.1309677 30.2483871,28.8064516 C30.4309677,28.6670968 30.5767742,28.403871 30.6606452,28.0470968 C30.7941935,27.4806452 30.723871,26.8070968 30.3064516,26.4322581 C30.3348387,26.3587097 30.3696774,26.2716129 30.4019355,26.1890323 C30.7103226,25.4116129 31.2851613,23.9632258 31.0606452,22.8393548 C30.8064516,21.5683871 28.9567742,21 27.236129,21 C25.9780645,21 24.4477419,21.3148387 24.0109677,22.1832258 C23.5270968,22.2277419 23.1574194,22.4193548 22.9090323,22.7541935 C22.2270968,23.6729032 22.7322581,25.3393548 23.0032258,26.2341935 C23.0219355,26.2974194 23.0425806,26.363871 23.0593548,26.4212903 C22.6316129,26.7935484 22.5580645,27.4748387 22.6935484,28.0470968 C22.7774194,28.403871 22.9232258,28.6670968 23.1058065,28.8064516 C23.1696774,30.1058065 23.8180645,30.8716129 24.096129,31.1432258 L24.096129,33.356129 C23.6967742,33.5051613 23.3109677,33.6470968 22.9393548,33.7825806 C20.3167742,34.7425806 18.4219355,35.436129 17.8470968,36.5870968 C17.0090323,38.2632258 17,39.9606452 17,40.0322581 C17,40.2096774 17.143871,40.3548387 17.3219355,40.3548387 L36.0322581,40.3548387 C36.2103226,40.3548387 36.3548387,40.2096774 36.3548387,40.0322581 C36.3548387,39.9606452 36.3451613,38.2632258 35.5070968,36.5870968" id="Imported-Layers"></path>
                    </g>
                </g>
            </g>
        </g>
    </g>
</svg>